<?xml version="1.0" encoding="utf-8"?>
<!-- Generator: Adobe Illustrator 24.0.1, SVG Export Plug-In . SVG Version: 6.00 Build 0)  -->
<svg version="1.1" id="圖層_1" xmlns="http://www.w3.org/2000/svg" xmlns:xlink="http://www.w3.org/1999/xlink" x="0px" y="0px"
	 viewBox="0 0 20 16" style="enable-background:new 0 0 20 16;" xml:space="preserve">
<style type="text/css">
	.st0{fill:#808080;}
</style>
<path class="st0" d="M1.2,0.2C0.9-0.1,0.4,0,0.2,0.3S0,1.1,0.3,1.3l18.5,14.5c0.3,0.3,0.8,0.2,1.1-0.1s0.2-0.8-0.1-1.1l-3.3-2.6
	c1.2-1.3,2.1-2.7,2.5-3.7c0.1-0.2,0.1-0.5,0-0.8c-0.5-1.1-1.4-2.7-2.9-4.1C14.5,2.2,12.5,1,10,1C7.9,1,6.1,1.8,4.7,2.9L1.2,0.2z
	 M5.9,3.9C7.1,3.1,8.4,2.5,10,2.5c2,0,3.7,0.9,5,2.1c1.2,1.1,2,2.4,2.5,3.4c-0.4,0.9-1.1,2.1-2.2,3.2l-1.7-1.3C13.8,9.3,14,8.7,14,8
	c0-2.2-1.8-4-4-4C9,4,8.1,4.4,7.4,5C7.4,5,5.9,3.9,5.9,3.9z M12.3,8.9l-2.5-2C9.9,6.6,10,6.3,10,6c0-0.2,0-0.3-0.1-0.5
	c0,0,0,0,0.1,0c1.4,0,2.5,1.1,2.5,2.5C12.5,8.3,12.4,8.6,12.3,8.9z M13.9,14l-1.3-1c-0.8,0.3-1.7,0.5-2.6,0.5c-2,0-3.7-0.9-5-2.1
	C3.8,10.3,3,8.9,2.5,8c0.3-0.6,0.7-1.3,1.2-2L2.6,5C1.9,6,1.4,6.9,1.1,7.6C1,7.9,1,8.1,1.1,8.4c0.5,1.1,1.4,2.7,2.9,4.1
	c1.5,1.4,3.5,2.5,6,2.5C11.5,15,12.8,14.6,13.9,14z M11.2,11.8l-1.8-1.4c-0.7-0.2-1.3-0.7-1.7-1.3L6,7.7C6,7.8,6,7.9,6,8
	c0,2.2,1.8,4,4,4C10.4,12,10.8,11.9,11.2,11.8L11.2,11.8z"/>
</svg>
