<?xml version="1.0" encoding="utf-8"?>
<!-- Generator: Adobe Illustrator 24.0.1, SVG Export Plug-In . SVG Version: 6.00 Build 0)  -->
<svg version="1.1" id="圖層_1" xmlns="http://www.w3.org/2000/svg" xmlns:xlink="http://www.w3.org/1999/xlink" x="0px" y="0px"
	 viewBox="0 0 18 16" style="enable-background:new 0 0 18 16;" xml:space="preserve">
<style type="text/css">
	.st0{fill:#808080;}
</style>
<path class="st0" d="M9,2.5c-2,0-3.7,0.9-5,2.1C2.8,5.7,2,7.1,1.5,8C2,8.9,2.8,10.3,4,11.4c1.3,1.2,3,2.1,5,2.1s3.7-0.9,5-2.1
	c1.2-1.1,2-2.4,2.5-3.4C16,7.1,15.2,5.7,14,4.6C12.7,3.4,11,2.5,9,2.5z M3,3.5C4.5,2.2,6.5,1,9,1s4.5,1.2,6,2.5
	c1.5,1.4,2.4,3,2.9,4.1c0.1,0.2,0.1,0.5,0,0.8c-0.5,1.1-1.4,2.7-2.9,4.1c-1.5,1.4-3.5,2.5-6,2.5s-4.5-1.1-6-2.5
	c-1.5-1.4-2.4-3-2.9-4.1C0,8.1,0,7.9,0.1,7.6C0.5,6.5,1.5,4.9,3,3.5z M9,10.5c1.4,0,2.5-1.1,2.5-2.5S10.4,5.5,9,5.5c0,0,0,0-0.1,0
	C9,5.7,9,5.8,9,6c0,1.1-0.9,2-2,2C6.8,8,6.7,8,6.5,7.9c0,0,0,0,0,0.1C6.5,9.4,7.6,10.5,9,10.5z M9,4c2.2,0,4,1.8,4,4s-1.8,4-4,4
	s-4-1.8-4-4S6.8,4,9,4z"/>
</svg>
