<?xml version="1.0" encoding="utf-8"?>
<!-- Generator: Adobe Illustrator 24.0.1, SVG Export Plug-In . SVG Version: 6.00 Build 0)  -->
<svg version="1.1" id="Layer_1" xmlns="http://www.w3.org/2000/svg" xmlns:xlink="http://www.w3.org/1999/xlink" x="0px" y="0px"
	 viewBox="0 0 143.8 142.5" style="enable-background:new 0 0 143.8 142.5;" xml:space="preserve">
<style type="text/css">
	.st0{fill:#FFFFFF;}
</style>
<g>
	<path class="st0" d="M68.8,142.5c-38,0-68.8-30.9-68.8-68.8c0-38,30.9-68.8,68.8-68.8c6.6,0,13.1,0.9,19.3,2.7
		c2.1,0.6,3.3,2.8,2.7,5c-0.6,2.1-2.8,3.3-5,2.7c-5.5-1.6-11.3-2.4-17.1-2.4C35.3,12.8,8,40.1,8,73.7c0,33.5,27.3,60.8,60.8,60.8
		c33.5,0,60.8-27.3,60.8-60.8c0-5.1-0.6-10.1-1.9-15c-0.5-2.1,0.8-4.3,2.9-4.9c2.1-0.5,4.3,0.8,4.9,2.9c1.4,5.5,2.1,11.2,2.1,17
		C137.7,111.6,106.8,142.5,68.8,142.5z"/>
	<path class="st0" d="M121.2,45.3c-2.2,0-4-1.8-4-4V4c0-2.2,1.8-4,4-4s4,1.8,4,4v37.3C125.2,43.5,123.4,45.3,121.2,45.3z"/>
	<path class="st0" d="M139.8,26.7h-37.3c-2.2,0-4-1.8-4-4s1.8-4,4-4h37.3c2.2,0,4,1.8,4,4S142,26.7,139.8,26.7z"/>
	<g>
		<path class="st0" d="M41.5,98.1V62.3C34.8,67.4,30.3,70,28,70c-1.1,0-2.1-0.4-2.9-1.3c-0.9-0.9-1.3-1.9-1.3-3
			c0-1.3,0.4-2.3,1.3-2.9c0.8-0.6,2.3-1.4,4.4-2.4c3.2-1.5,5.7-3.1,7.6-4.7c1.9-1.7,3.6-3.5,5-5.5c1.5-2,2.4-3.3,2.9-3.8
			c0.4-0.5,1.3-0.7,2.5-0.7c1.4,0,2.5,0.5,3.3,1.6c0.8,1.1,1.3,2.6,1.3,4.4v45c0,5.3-1.8,7.9-5.4,7.9c-1.6,0-2.9-0.5-3.9-1.6
			C42,101.7,41.5,100.2,41.5,98.1z"/>
		<path class="st0" d="M65.5,60.5c0-2.6,0.7-5.1,2.1-7.4c1.4-2.3,3.5-4.2,6.3-5.6c2.8-1.4,6-2.1,9.7-2.1c3.1,0,5.9,0.4,8.2,1.2
			c2.4,0.8,4.3,1.9,5.9,3.4c1.6,1.4,2.7,3,3.5,4.8c0.8,1.8,1.1,3.7,1.1,5.7c0,2.6-0.7,4.9-2,6.9c-1.3,2-3.3,3.7-5.9,5
			c2.2,0.9,4.1,2,5.5,3.4c1.5,1.4,2.6,3,3.3,4.9c0.7,1.8,1.1,3.9,1.1,6.2c0,3.3-0.8,6.3-2.4,9c-1.6,2.7-3.9,4.8-7,6.3
			c-3.1,1.5-6.7,2.3-10.9,2.3c-4.3,0-8.1-0.8-11.2-2.3c-3.1-1.5-5.4-3.6-7-6.3c-1.6-2.7-2.4-5.6-2.4-8.9c0-7,3.3-11.9,10-14.5
			C68.2,69.8,65.5,65.9,65.5,60.5z M93.7,86.5c0-2-0.4-3.8-1.3-5.3c-0.8-1.5-2-2.7-3.5-3.5c-1.5-0.8-3.2-1.2-5.1-1.2
			c-2.7,0-4.9,0.9-6.7,2.7c-1.8,1.8-2.7,4.3-2.7,7.5c0,2,0.4,3.8,1.3,5.4c0.9,1.6,2,2.8,3.5,3.6c1.5,0.9,3.1,1.3,4.9,1.3
			c1.8,0,3.5-0.4,5-1.3c1.5-0.9,2.6-2.1,3.5-3.7C93.3,90.3,93.7,88.5,93.7,86.5z M83.9,52.9c-2.5,0-4.4,0.8-6,2.3
			c-1.5,1.5-2.3,3.5-2.3,5.9c0,2.2,0.8,4.1,2.3,5.6c1.5,1.5,3.5,2.2,6,2.2c1.2,0,2.4-0.2,3.4-0.6c1-0.4,1.9-0.9,2.6-1.6
			c0.7-0.7,1.3-1.5,1.7-2.5c0.4-1,0.6-2,0.6-3.2c0-1.5-0.3-2.9-1-4.2c-0.7-1.2-1.7-2.2-2.9-2.9C87,53.3,85.5,52.9,83.9,52.9z"/>
	</g>
</g>
</svg>
