<?xml version="1.0" encoding="utf-8"?>
<!-- Generator: Adobe Illustrator 24.0.1, SVG Export Plug-In . SVG Version: 6.00 Build 0)  -->
<svg version="1.1" id="Layer_1" xmlns="http://www.w3.org/2000/svg" xmlns:xlink="http://www.w3.org/1999/xlink" x="0px" y="0px"
	 viewBox="0 0 197.4 135.4" style="enable-background:new 0 0 197.4 135.4;" xml:space="preserve">
<style type="text/css">
	.st0{fill:#FFFFFF;}
</style>
<g>
	<g>
		<path class="st0" d="M19.2,68.2h13.7v19.7h-4.5v-6.1c-1.2,2-1.8,2.8-2.9,3.7c-2.6,2.2-5.7,3.4-9.1,3.4C7.2,88.9,0,79.9,0,68.3
			c0-11.7,7.1-20.8,16.3-20.8c3.8,0,8.2,1.1,11.8,6.9v-6.1h4.2v12.6h-4.3c-0.6-2.2-1.2-3.6-2.2-4.8c-2.2-2.8-5.3-4.3-8.4-4.3
			c-4.9,0-11.9,4.2-11.9,16.4c0,9.5,5.1,16.6,12,16.6c5,0,9.7-4.1,10.8-9.4c0.2-0.8,0.2-1.6,0.3-3.2h-9.2L19.2,68.2L19.2,68.2z"/>
		<path class="st0" d="M66.7,87.9h-8.5v-5.3c-2.4,3.8-5.7,5.9-10.1,5.9c-5.6,0-9.7-3.9-9.7-9.1c0-5.7,5.1-8.6,17-9.7
			c0.4-0.1,1.6-0.2,2.8-0.3v-3.1c0-3.4-2.6-5.6-6.8-5.6c-4.4,0-6.4,1.5-7.3,5.3h-4.6c0.7-3,1.6-4.6,3.4-6.2c2-1.7,4.8-2.6,8.1-2.6
			c6.2,0,11.5,2.9,11.5,10.5v16.6h4.3L66.7,87.9L66.7,87.9z M58.1,72.4l-2.8,0.3c-9.2,1.1-12.3,2.8-12.3,6.6c0,3.1,2.8,5.7,6.2,5.7
			c5.3,0,8.8-5.1,8.8-7.8V72.4L58.1,72.4z"/>
		<path class="st0" d="M79.2,63.3c1.3-2.1,4-6.2,9.6-6.2c4,0,6.3,2.1,7,6.3c1.2-2,1.7-2.8,2.9-3.7c2-1.7,4.1-2.6,6.5-2.6
			c4.6,0,7.3,3,7.3,8.2v19.1h4.2v3.5h-8.5v-21c0-4.2-1.4-6.1-4.3-6.1c-5.2,0-8,6.3-8,8.3v15.3h4.3v3.5h-8.7V66.2
			c0-3.8-1.4-5.5-4.3-5.5c-4.7,0-8,5.8-8,8.5v15.1h4.3v3.5h-13v-3.5h4.4V61.2h-4.4v-3.6h8.8L79.2,63.3L79.2,63.3z"/>
		<path class="st0" d="M121.1,46.5h8.4V64c1.1-2.1,4.6-6.7,9.9-6.7c6.8,0,12,6.9,12,15.8c0,8.3-5.5,15.2-12.1,15.2
			c-5.3,0-7.9-3.5-9.8-6.1v5.7h-8.6v-3.5h4.3V50h-4.1V46.5L121.1,46.5z M129.5,75.1c0,5,4,9.4,8.7,9.4c5.2,0,8.5-4.7,8.5-11.9
			c0-7-3.3-11.7-8.3-11.7c-4.4,0-8.8,4.9-8.8,9.2V75.1L129.5,75.1z"/>
		<polygon class="st0" points="154.8,46.5 163.4,46.5 163.4,84.3 167.5,84.3 167.5,87.9 154.8,87.9 154.8,84.3 159.1,84.3 159.1,50 
			154.8,50 		"/>
		<path class="st0" d="M196.7,79.5c-0.6,2.1-1.3,3.3-2.4,4.6c-2.4,2.8-5.7,4.3-9.5,4.3c-8.2,0-13.9-6.4-13.9-15.6
			c0-8.9,5.7-15.7,13.2-15.7c7.5,0,13.3,5.8,13.3,16.4h-21.9c0.4,4.4,1.4,6.9,3.5,8.9c1.6,1.5,3.4,2.2,5.7,2.2
			c3.5,0,5.6-1.6,7.1-5.2H196.7L196.7,79.5z M192.4,70.3c-0.3-3.8-1.2-5.8-2.9-7.5c-1.3-1.2-3-1.9-5-1.9c-3.7,0-6.7,2.5-8,6.5
			c-0.2,0.7-0.5,1.9-0.6,2.9H192.4L192.4,70.3z"/>
	</g>
	<g>
		<path class="st0" d="M14.1,95.1h9.5l10.9,33.2h3v6.5h-9.1l-2.6-8.6H11.8l-2.6,8.6H0v-6.5h3L14.1,95.1L14.1,95.1z M18.8,102.5
			L13.5,120H24L18.8,102.5L18.8,102.5z"/>
		<polygon class="st0" points="37.2,104.6 49.2,104.6 49.2,110.5 46.2,110.5 50.4,128.2 55.3,104.6 63.1,104.6 68.1,127.9 
			72.1,110.5 69.1,110.5 69.1,104.6 81.2,104.6 81.2,110.5 78.6,110.5 72.2,134.7 64.2,134.7 59.2,113.8 54.5,134.7 46.4,134.7 
			39.7,110.5 37.2,110.5 		"/>
		<path class="st0" d="M109.7,128.8h2.6v5.8h-9.3v-3.5c-3.1,3.1-5.4,4.2-9.1,4.2c-6,0-10.6-4-10.6-9.4c0-8.8,9.9-9.8,19.6-10.7
			c-0.1-4.6-1.2-5.8-5.6-5.8c-3.1,0-5.2,1.7-5.4,4.6l-7.3-0.2c0.4-6,5.2-9.9,12.4-9.9c8.3,0,12.8,3.8,12.8,10.6L109.7,128.8
			L109.7,128.8z M102.6,120.5c-7.1,0.7-11.7,1.3-11.7,5.5c0,2.5,2,4.1,4.9,4.1c3.8,0,6.7-2.9,6.7-6.6V120.5L102.6,120.5z"/>
		<path class="st0" d="M127.8,109.3c2-3.8,4.2-5.4,7.5-5.4c1,0,1.9,0.1,3.4,0.4v7c-1.3-0.3-2.4-0.4-3.7-0.4c-3.9,0-7.3,2.8-7.3,6.2
			v11.7h3.6v5.8h-13.9v-5.8h2.9v-18.4h-2.9v-5.8h10.2L127.8,109.3L127.8,109.3z"/>
		<path class="st0" d="M168.9,124.8c-1.3,6.5-6.8,10.6-14.1,10.6c-8.4,0-14.6-6.6-14.6-15.8c0-9.1,6.2-15.9,14.7-15.9
			c4.8,0,9,2.2,11.6,6.1c2.8,4.2,2.9,8.2,3,11.2h-21.7c0.7,7.8,5.8,8.2,7.3,8.2c3,0,4.9-1.4,6.1-4.5H168.9L168.9,124.8z
			 M161.2,115.9c-0.5-3.8-2.8-5.9-6.4-5.9c-3.3,0-5.8,2.2-6.7,5.9H161.2L161.2,115.9z"/>
	</g>
	<g>
		<path class="st0" d="M0.1,0h15.1c6.7,0,9.3,0.2,11.2,1.1c2.6,1.1,6.1,4.3,6.1,9.6c0,4-1.3,6-5.1,8c4.5,1.9,6.6,4.7,6.6,9.9
			c0,6.6-5.1,11.1-12.8,11.1H0v-6.5h3.1V6.5h-3V0L0.1,0z M11.2,6.5v9.6H19c3.4,0,5.7-2.1,5.7-5.1c0-2.6-2.6-4.6-6.2-4.6L11.2,6.5
			L11.2,6.5z M11.2,22.3v10.8h8.3c3.5,0,6.3-2.3,6.3-5.3c0-3.3-2.8-5.5-7.1-5.5H11.2L11.2,22.3z"/>
		<path class="st0" d="M67.1,29.7c-1.3,6.5-6.8,10.6-14.1,10.6c-8.4,0-14.6-6.6-14.6-15.8c0-9.1,6.2-15.9,14.7-15.9
			c4.8,0,9,2.2,11.6,6.1c2.8,4.2,2.9,8.2,3,11.2H45.9c0.7,7.8,5.8,8.2,7.3,8.2c3,0,4.9-1.4,6.1-4.5L67.1,29.7L67.1,29.7z M59.4,20.9
			C58.9,17,56.6,15,53.1,15c-3.3,0-5.8,2.2-6.7,5.9H59.4L59.4,20.9z"/>
	</g>
</g>
</svg>
