<?xml version="1.0" encoding="utf-8"?>
<!-- Generator: Adobe Illustrator 24.0.1, SVG Export Plug-In . SVG Version: 6.00 Build 0)  -->
<svg version="1.1" id="Layer_1" xmlns="http://www.w3.org/2000/svg" xmlns:xlink="http://www.w3.org/1999/xlink" x="0px" y="0px"
	 viewBox="0 0 131.7 146.5" style="enable-background:new 0 0 131.7 146.5;" xml:space="preserve">
<style type="text/css">
	.st0{fill:#FFFFFF;}
</style>
<g>
	<g>
		<path class="st0" d="M20.6,135.8c-0.3,6.4-4.6,10.6-10.3,10.6c-3,0-5.6-1.2-7.7-3.5c-1.7-1.9-2.6-4.4-2.6-7.2
			c0-2.8,1.1-5.4,3.2-7.5c2-2,4.4-2.9,7.4-2.9c4.1,0,7.3,2,8.9,5.5h-3.6c-1.3-1.7-3.2-2.6-5.5-2.6c-1.9,0-3.7,0.7-5,2.1
			c-1.4,1.5-2.2,3.5-2.2,5.4c0,2.1,0.7,4.1,2.1,5.4c1.4,1.5,3.3,2.3,5.2,2.3c3.1,0,5.4-1.6,7-4.9H8.1v-2.9H20.6z"/>
		<path class="st0" d="M23.8,146.1h-3.1l7.9-20.3h2.9l7.9,20.3h-3.2l-2.2-5.9h-7.9L23.8,146.1z M30,129.6l-2.9,7.7h5.8L30,129.6z"/>
		<path class="st0" d="M40.5,146.1v-20.3h4.4l5.9,15.7l5.9-15.7h4.3v20.3h-2.8l0.2-17.6l-6.6,17.6h-2.1l-6.6-17.6l0.2,17.6H40.5z"/>
		<path class="st0" d="M73.8,146.5c-3,0-5.5-1.1-7.5-3.2c-1.9-2-2.9-4.5-2.9-7.5c0-2.8,1.1-5.4,3.1-7.3c2-2,4.5-3,7.4-3
			c4.7,0,8.8,3.1,10.1,8.1h-5.4c-1.1-2-2.7-3.1-4.7-3.1c-3,0-5.4,2.3-5.4,5.3c0,3.2,2.5,5.7,5.3,5.7c1.9,0,3.6-1,4.7-2.9h5.4
			C82.5,143.5,78.7,146.5,73.8,146.5z"/>
		<path class="st0" d="M88.9,146.1h-5.4l7.8-20.3h4l7.8,20.3h-5.5l-1-2.9h-6.7L88.9,146.1z M93.3,132.4l-2,6.5h4L93.3,132.4z"/>
		<path class="st0" d="M103.5,146.1v-20.3h6.7c2.1,0,3.8,0.1,5.1,1.1c1.8,1.3,2.7,3.2,2.7,5.7c0,3.3-1.7,5.7-4.6,6.5l5,7h-6.1
			l-3.9-6.5v6.5H103.5z M109.4,135.1c2.5,0,3.6-0.6,3.6-2.5c0-1.7-1.1-2.4-3.2-2.4h-1.4v4.8H109.4z"/>
		<path class="st0" d="M120.7,146.1v-20.3h11v4.5h-6v3.3h6v4.5h-6v3.5h6v4.5H120.7z"/>
	</g>
	<g>
		<path class="st0" d="M128.1,70.1c-0.5-0.3-1.1-0.5-1.8-0.6c-0.2,0-0.3,0-0.5,0c-0.1,0-0.2,0-0.2,0h-0.2c-0.2,0-0.4,0-0.6,0H85.1
			c-2.8,0-5.1,2.3-5.1,5.1c0,2.8,2.3,5.1,5.1,5.1h15.4c0.5,0,0.9,0.4,0.9,0.9c0,0.3-0.2,0.5-0.4,0.7c-8.4,4.5-19.3,7.2-31.2,7.2
			c-2.9,0-5.7-0.2-8.5-0.5v11.5c2.4,0.2,4.8,0.3,7.3,0.3c16.5,0,31.6-4,42.9-10.6l0,0c0.1-0.1,0.3-0.1,0.5-0.1c0.6,0,1,0.4,1,1
			c0,0.1,0,0.2,0,0.3l-2.3,6.4c-1.2,3.4,0.5,7.1,3.8,8.3c0.7,0.3,1.5,0.4,2.2,0.4c2.6,0,5.1-1.6,6.1-4.2l8.5-23.1
			C132.5,75,131,71.6,128.1,70.1z"/>
		<path class="st0" d="M69.9,26.6c12,0,22.9,2.8,31.4,7.3c0,0,5.4,3.9,7.9,0.2c2.9-4.3-2.9-6.9-2.9-6.9c-10.5-4.9-23.5-7.9-37.6-7.9
			c-2.5,0-4.9,0.1-7.3,0.3V27C64.2,26.7,67,26.6,69.9,26.6z"/>
		<g>
			<path class="st0" d="M9,0c-4.9,0-9,4-9,9v97.7c0,4.9,4,9,9,9h52.4V99.5c-31.5-2.3-56-19.3-56-40c0-20.7,24.5-37.7,56-40V0H9z"/>
			<path class="st0" d="M21.3,57.5c0,15.3,17.3,27.9,40.1,30.5V27C38.6,29.6,21.3,42.3,21.3,57.5z"/>
		</g>
	</g>
</g>
</svg>
